<svg width="316" height="94" viewBox="0 0 316 94" fill="none" xmlns="http://www.w3.org/2000/svg">
<path d="M16.6818 4.18182L33.5568 57.2273H34.2045L51.1136 4.18182H67.4773L43.4091 74H24.3864L0.284091 4.18182H16.6818ZM75.608 74V21.6364H90.1307V74H75.608ZM82.9034 14.8864C80.7443 14.8864 78.892 14.1705 77.3466 12.7386C75.8239 11.2841 75.0625 9.54545 75.0625 7.52272C75.0625 5.52272 75.8239 3.80682 77.3466 2.375C78.892 0.920452 80.7443 0.193178 82.9034 0.193178C85.0625 0.193178 86.9034 0.920452 88.4261 2.375C89.9716 3.80682 90.7443 5.52272 90.7443 7.52272C90.7443 9.54545 89.9716 11.2841 88.4261 12.7386C86.9034 14.1705 85.0625 14.8864 82.9034 14.8864ZM116.287 43.7273V74H101.764V21.6364H115.605V30.875H116.219C117.378 27.8295 119.321 25.4205 122.048 23.6477C124.776 21.8523 128.082 20.9545 131.969 20.9545C135.605 20.9545 138.776 21.75 141.48 23.3409C144.185 24.9318 146.287 27.2045 147.787 30.1591C149.287 33.0909 150.037 36.5909 150.037 40.6591V74H135.514V43.25C135.537 40.0455 134.719 37.5455 133.06 35.75C131.401 33.9318 129.116 33.0227 126.207 33.0227C124.253 33.0227 122.526 33.4432 121.026 34.2841C119.548 35.125 118.389 36.3523 117.548 37.9659C116.73 39.5568 116.31 41.4773 116.287 43.7273ZM189.335 21.6364V32.5455H157.801V21.6364H189.335ZM164.96 9.09091H179.483V57.9091C179.483 59.25 179.688 60.2955 180.097 61.0455C180.506 61.7727 181.074 62.2841 181.801 62.5795C182.551 62.875 183.415 63.0227 184.392 63.0227C185.074 63.0227 185.756 62.9659 186.438 62.8523C187.119 62.7159 187.642 62.6136 188.006 62.5455L190.29 73.3523C189.563 73.5795 188.54 73.8409 187.222 74.1364C185.903 74.4545 184.301 74.6477 182.415 74.7159C178.915 74.8523 175.847 74.3864 173.21 73.3182C170.597 72.25 168.563 70.5909 167.108 68.3409C165.653 66.0909 164.938 63.25 164.96 59.8182V9.09091Z" fill="#60A5FA"/>
<path d="M194.432 74L203.159 21.6364H217.682L208.955 74H194.432ZM211.92 14.8182C209.761 14.8182 207.977 14.1023 206.568 12.6705C205.182 11.2159 204.614 9.48863 204.864 7.48863C205.114 5.44318 206.091 3.71591 207.795 2.30682C209.5 0.874996 211.432 0.159086 213.591 0.159086C215.75 0.159086 217.511 0.874996 218.875 2.30682C220.239 3.71591 220.807 5.44318 220.58 7.48863C220.352 9.48863 219.386 11.2159 217.682 12.6705C216 14.1023 214.08 14.8182 211.92 14.8182ZM257.509 21.6364L255.702 32.5455H223.384L225.19 21.6364H257.509ZM223.827 74L233.202 17.8523C233.815 14.0568 235.065 10.9091 236.952 8.40909C238.861 5.90909 241.213 4.03409 244.009 2.78409C246.827 1.53409 249.872 0.909086 253.145 0.909086C255.372 0.909086 257.384 1.07954 259.179 1.42045C260.997 1.76136 262.315 2.06818 263.134 2.34091L258.804 13.25C258.259 13.0682 257.588 12.8977 256.793 12.7386C255.997 12.5795 255.156 12.5 254.27 12.5C252.156 12.5 250.599 13 249.599 14C248.622 14.9773 247.963 16.3523 247.622 18.125L238.315 74H223.827ZM263.381 93.6364C261.517 93.6364 259.813 93.4886 258.267 93.1932C256.722 92.9205 255.449 92.5682 254.449 92.1364L259.562 81.2955C261.176 81.8182 262.642 82.0909 263.96 82.1136C265.301 82.1364 266.528 81.7955 267.642 81.0909C268.756 80.3864 269.778 79.2273 270.71 77.6136L272.006 75.3977L262.188 21.6364H276.915L281.347 60.1591H281.892L299.244 21.6364H315.165L285.199 79.6591C283.722 82.5 281.972 84.9659 279.949 87.0568C277.949 89.1477 275.574 90.7614 272.824 91.8977C270.097 93.0568 266.949 93.6364 263.381 93.6364Z" fill="black"/>
</svg>
